<svg xmlns="http://www.w3.org/2000/svg" viewBox="80 36 760 680"><path d="M256 51l-10 1c-40 6-78 27-103 58a219 219 0 00-42 89l14-1c20-2 45-2 53 0 13 4 20 11 20 20l-3 15c-4 12-4 17-1 21 3 5 7 7 13 7 7 0 10-2 12-7 3-6 2-10-1-18l-4-12c-1-12 8-22 25-26a237 237 0 0155 1l3-20c2-12 2-18-1-21s-10-2-21 2l-15 4c-6 0-8 0-13-2-12-6-17-22-11-34 6-11 22-16 37-12 7 2 17 2 19 0l2-6c0-9-6-43-9-56l-1-4h-8l-10 1z"/><path d="M285 58c4 17 7 39 7 50c1 11 0 11-2 14c-5 5-17 6-28 3c-12-3-23 0-27 6c-4 7-1 18 6 22c5 3 11 2 19-1c16-6 23-7 29-3c9 5 10 16 6 39l-1 12 38 4c9 0 13-1 18-6c4-4 4-8 0-16c-6-12-3-26 9-33c11-7 25 0 33 15c2 6 3 10 0 20l-1 8c1 5 10 6 36 3l18-2 1-14 1-14-3-9a163 163 0 00-153-106h-8l2 8z"/><path d="M611 50c-67 4-118 37-145 94-9 18-10 23-10 36v12h21c22 1 31 2 41 6 6 3 12 9 13 13 0 5-1 12-4 17l-2 7c0 4 3 10 7 13 5 4 16 2 21-5 4-4 4-7 2-15v-12c3-12 15-17 38-16l32 4h3v-15c-1-17-2-23-7-26-3-3-10-3-18 0-20 5-37-14-30-34 3-7 10-13 17-15 6-1 8-1 21 2 10 3 13 2 15-6l3-59c-1-2-7-2-19-1z"/><path d="M638 55l-3 57c-4 15-11 17-30 12-11-2-15-2-20 4-11 11 0 30 15 26s22-3 29 3c5 6 7 13 8 33 0 13 0 15 2 15 4 2 35 5 42 5 12 0 18-2 20-7v-10c-2-7-2-10 2-17 5-11 13-17 22-16s15 7 19 18c3 6 3 13 0 21-1 3-2 7-1 8 1 4 7 10 13 11 10 2 32 0 45-4 4-1 5-1 4-3l-1-10c-4-18-12-40-20-57-29-56-77-88-139-94h-7v5z"/><path d="M138 206a1261 1261 0 01-39 3 270 270 0 0028 161c18 5 38 8 46 8 14 0 14 0 11-16-3-10-2-16 1-22 7-14 24-16 36-4 7 8 8 15 3 27l-2 11c2 4 8 6 18 7 8 0 35-2 36-4l-1-11c-2-19-2-26-1-34 2-14 9-24 17-26l12 3c8 4 11 5 16 2 11-5 13-18 4-26-5-5-9-5-18 0-7 4-11 4-16 1-8-5-11-12-11-23l4-53c1-2-5-3-26-4-20 0-28 0-35 5-9 4-10 9-4 23 3 8 3 10 3 15-2 21-26 29-41 14-7-8-8-16-3-32l3-13c0-9-18-14-42-12z"/>  <path d="M361 159c-7 7-7 12-2 22 3 6 4 12 2 17s-9 11-14 13c-7 3-19 3-40 0l-15-1-4 28c-2 29-1 36 5 40 2 1 3 1 10-2 12-6 21-5 28 4 4 4 7 12 7 17 0 8-7 18-15 22s-14 4-22 0-10-4-14 1c-3 5-4 10-4 20-1 10 2 33 3 35 1 1 5 1 20-2l27-2c8 0 9 0 14 2 10 5 13 12 10 23-4 19-4 20-1 25s9 9 14 9c7 0 15-7 15-13l-4-10-3-12c0-7 3-13 9-19 9-9 16-11 41-7l13 1 1-21c0-26-2-33-10-35-3-1-5-1-12 1-19 7-33 0-37-15-3-12 3-25 15-30 6-3 15-3 23 0s11 2 16-3c9-8 12-19 10-45v-19h-3l-18 1c-26 3-33 2-40-3-5-5-5-9-3-19 3-11 2-14-5-21-5-5-6-6-10-6-3 0-4 1-7 4z"/><path d="M461 202h-5l1 20-1 28c-3 13-10 24-19 29-6 2-10 3-19 0-11-4-20-1-25 7-4 7-1 17 6 21 5 3 10 3 19-1 8-2 12-2 17-1 7 2 12 8 14 15 2 6 2 10 2 30 0 22 0 22 2 22l26 5c25 4 38 4 42 2 2-1 2-2 2-7-2-20-2-20 0-25 4-8 12-16 18-17 9-3 17 0 24 8s8 16 1 34l-3 12c1 2 5 4 12 5l27-5 24-7 1-13c-1-22 1-42 7-50 6-12 14-14 28-10 10 3 16 2 21-2 3-4 4-4 4-10 0-8-3-12-10-17-5-4-8-4-15 0-7 3-11 3-16 2-13-4-18-17-18-50l-1-14-12-2-26-1c-13 0-15 0-19 2-7 3-8 6-5 16 2 10 0 17-7 24-6 5-10 6-18 7-5 0-7 0-11-2-11-6-16-20-10-34l3-9c0-9-29-15-61-12z"/><path d="M716 173l-6 8c-2 5-2 5 0 11 2 9 1 14-5 20-3 3-6 5-10 6-6 2-22 2-40-1l-16-2c-2 0-2 1-2 14 0 24 3 34 10 38l3 2 8-3 12-3c6 0 13 4 18 10 10 11 11 24 2 34-7 8-17 10-32 5-8-2-11-1-15 3-3 3-6 13-7 24-1 12 0 35 1 35l11-2c11-2 22-3 27 0 8 3 14 13 12 20l-3 9c-3 7-4 8-2 14 4 12 18 12 24 0 2-5 2-5 1-13-2-10-1-13 3-19 6-8 15-10 46-8h20a300 300 0 0032-114c1-14 0-35-1-37h-7c-18 5-42 5-52 1-6-3-12-9-14-15-1-5-1-6 1-13 3-7 2-12-1-19-4-9-11-12-18-5z"/><path d="M197 340c-6 5-7 9-4 22 2 10 3 13 0 18-4 8-18 10-46 4l-16-2a602 602 0 00135 166l3 2 1-4 4-16c3-15 3-35 1-40s-6-5-15-1c-13 6-24 3-30-9-2-6-3-16 0-22 3-8 13-15 22-15l11 3 9 2c7 0 10-8 10-21 0-10-3-37-4-39 0-1-4-1-14 1-19 2-33 1-40-2-11-5-13-13-9-25 4-9 4-14 0-18-6-7-13-9-18-4z"/><path d="M398 379c-5 2-10 8-11 13l3 13c5 10 5 14 2 20s-5 9-11 12c-9 4-19 2-27-4-5-5-9-13-9-18l3-14c2-10 2-12 1-15-2-4-7-6-16-6-8 0-44 5-45 6l1 14c4 28 4 36-2 47-5 10-13 12-26 7-8-3-12-2-17 1s-7 7-7 13l2 9c5 7 10 8 18 3 8-4 16-4 21-1 5 4 7 10 7 25 0 13-1 25-5 39l-1 7 13-2 28-3c21-1 23-2 25-6 1-3 1-5-1-12-2-13-2-21 2-28 8-16 32-14 41 4 2 5 2 13 0 18-3 7-3 9 3 14 5 5 12 7 20 7l34-3-1-14c-5-31-2-47 9-55 4-3 12-3 24 1 8 2 9 2 13 1 7-2 12-7 12-13 0-7-4-11-11-15-8-4-10-4-21 1-10 4-17 3-22-2-5-6-5-9-5-37l-2-26-32-4-10 3z"/><path d="M540 340l-7 7c-3 4-3 5-3 11l2 15v8l-3 3c-3 3-6 4-10 5-7 2-12 1-43-4-21-3-24-3-25-2-1 2-1 47 1 51 1 2 2 3 5 4s4 1 11-2c13-6 23-4 34 5 5 5 8 11 8 17 0 10-6 18-16 22-7 3-11 3-20 0-11-4-16-4-19 0-4 5-5 10-5 23 0 11 2 33 4 34h8c19-2 39-1 45 3 7 5 8 11 3 21-4 9-4 13-1 17 4 7 12 12 17 11 5-2 13-12 13-18l-2-8c-10-25 16-35 66-24l20 5c13 4 11 6 11-22-1-25-1-29-6-34-3-4-8-4-17 1-10 5-18 4-26-4-10-11-10-28-1-37 6-5 16-7 24-4 6 3 11 3 15-1 7-6 8-17 6-46l-1-9h-3l-21 5c-15 4-19 4-27 4-8 1-10 0-14-2-10-4-11-9-5-26l4-16c0-11-13-19-22-13z"/><path d="M652 381c-14 3-15 3-15 6a387 387 0 010 50l-5 10c-6 8-16 10-26 7-7-3-12-2-15 1-7 7-6 16 2 24 5 5 7 5 16 0 5-2 7-3 12-3 8 0 12 2 16 8 4 7 5 12 6 36l1 22 25-24a593 593 0 00102-133l-18-1c-26-2-33-1-37 6v24c-4 12-12 19-23 19-10 0-18-7-20-18-1-6-1-10 3-19 3-7 3-7 2-10-3-7-13-9-26-6z"/><path d="M359 498c-3 1-4 3-6 6-2 5-2 9 1 22 2 10 1 17-4 22-4 4-8 5-28 6-15 1-37 4-40 6-1 1-1 1 1 3a1998 1998 0 00165 126c1-2 5-33 5-43 1-12-1-17-7-18-3-1-4-1-18 4-11 3-24-4-30-15-4-8-2-17 5-24 9-10 20-13 32-8 5 3 6 3 9 2l4-5c2-4 2-4 0-18l-3-15-13 1c-17 1-28 1-35-1-6-2-14-7-18-12s-4-10-1-19c2-6 2-9-2-14s-11-8-17-6z"/><path d="M555 545c-5 1-10 4-11 6-1 1 0 4 2 10 2 5 2 9 2 12-1 10-11 22-19 24-9 2-18-2-25-10-7-9-8-16-3-27 4-9 4-10 0-12-2-2-6-2-14-3l-32 2 2 15c2 14 2 15 1 20-2 6-7 11-12 14-4 1-6 1-13-2-8-3-14-3-20 2-10 7-11 17-2 24 6 3 12 4 20 1 14-5 24-3 29 8 2 5 3 6 2 15l-2 25-2 17a1842 1842 0 00170-131c-1-1-23-7-35-9s-32-3-38-1z"/></svg>
